<svg width="283" height="49" viewBox="0 0 283 49" fill="none" xmlns="http://www.w3.org/2000/svg">
<path d="M4.37021 46.188C3.53821 46.188 2.93154 45.9973 2.55021 45.616C2.16888 45.2346 1.97821 44.628 1.97821 43.796V37.712C1.97821 37.2613 2.03021 36.88 2.13421 36.568C2.27288 36.256 2.46354 35.996 2.70621 35.788L7.90621 31.42C6.06888 30.8653 4.61288 29.9293 3.53821 28.612C2.49821 27.26 1.97821 25.336 1.97821 22.84V17.38C1.97821 15.82 2.23821 14.4333 2.75821 13.22C3.27821 12.0066 4.02354 10.984 4.99421 10.152L11.7542 4.48398C12.6902 3.72131 13.8515 3.13198 15.2382 2.71598C16.6249 2.26531 18.2022 2.03998 19.9702 2.03998H34.5302C35.3622 2.03998 35.9689 2.23064 36.3502 2.61198C36.7315 2.99331 36.9222 3.59998 36.9222 4.43198V10.62C36.9222 11.0706 36.8529 11.452 36.7142 11.764C36.6102 12.076 36.4369 12.336 36.1942 12.544L31.5142 16.444C33.6982 16.9293 35.4489 17.848 36.7662 19.2C38.1182 20.5173 38.7942 22.58 38.7942 25.388V30.848C38.7942 32.408 38.5342 33.7946 38.0142 35.008C37.4942 36.2213 36.7315 37.244 35.7262 38.076L29.0182 43.692C28.0475 44.4893 26.8689 45.096 25.4822 45.512C24.0955 45.9626 22.5355 46.188 20.8022 46.188H4.37021ZM27.5102 40C30.8382 40 33.4555 39.22 35.3622 37.66C37.3035 36.0653 38.2742 33.7946 38.2742 30.848V25.388C38.2742 22.476 37.5289 20.396 36.0382 19.148C34.5475 17.9 32.5889 17.1026 30.1622 16.756L22.4142 15.716C21.9635 15.6813 21.6169 15.508 21.3742 15.196C21.1315 14.884 21.0102 14.5026 21.0102 14.052C21.0102 13.6013 21.1315 13.2373 21.3742 12.96C21.6169 12.648 21.9635 12.492 22.4142 12.492H34.5302C35.1889 12.492 35.6569 12.3533 35.9342 12.076C36.2462 11.764 36.4022 11.2786 36.4022 10.62V4.43198C36.4022 3.77331 36.2462 3.30531 35.9342 3.02798C35.6569 2.71598 35.1889 2.55998 34.5302 2.55998H19.9702C16.6075 2.55998 13.9729 3.35731 12.0662 4.95198C10.1595 6.51198 9.20621 8.76531 9.20621 11.712V17.172C9.20621 20.084 9.93421 22.164 11.3902 23.412C12.8809 24.66 14.8395 25.4573 17.2662 25.804L25.0662 26.896C25.5169 26.9306 25.8462 27.0866 26.0542 27.364C26.2969 27.6413 26.4182 28.0746 26.4182 28.664C26.4182 29.08 26.2969 29.444 26.0542 29.756C25.8462 30.0333 25.5169 30.172 25.0662 30.172H11.0782C10.4195 30.172 9.93421 30.328 9.62221 30.64C9.34488 30.9173 9.20621 31.3853 9.20621 32.044V38.128C9.20621 38.7866 9.34488 39.272 9.62221 39.584C9.93421 39.8613 10.4195 40 11.0782 40H27.5102ZM31.7222 7.23998V7.75998H20.1782C18.7222 7.75998 17.5609 8.15865 16.6942 8.95598C15.8275 9.75331 15.3942 10.7586 15.3942 11.972V16.236C15.3942 17.4493 15.6369 18.2986 16.1222 18.784C16.6075 19.2693 17.2489 19.5813 18.0462 19.72L29.0182 21.956C30.0582 22.164 30.9075 22.6146 31.5662 23.308C32.2595 24.0013 32.6062 25.2493 32.6062 27.052V30.068C32.6062 31.5933 32.0862 32.8586 31.0462 33.864C30.0062 34.8346 28.6022 35.32 26.8342 35.32H13.8862V34.8H26.8342C28.4289 34.8 29.6942 34.3666 30.6302 33.5C31.6009 32.5986 32.0862 31.4546 32.0862 30.068V27.052C32.0862 25.4226 31.7915 24.3133 31.2022 23.724C30.6475 23.1 29.8849 22.684 28.9142 22.476L17.9422 20.24C17.0409 20.0666 16.2955 19.72 15.7062 19.2C15.1515 18.6453 14.8742 17.6573 14.8742 16.236V11.972C14.8742 10.5853 15.3595 9.45864 16.3302 8.59198C17.3009 7.69064 18.5835 7.23998 20.1782 7.23998H31.7222ZM58.2422 46.968C54.8795 46.968 52.1062 46.604 49.9222 45.876C47.7729 45.1826 46.0915 44.2466 44.8782 43.068C43.6649 41.8893 42.8155 40.5373 42.3302 39.012C41.8795 37.4866 41.6542 35.9093 41.6542 34.28V10.1C41.6542 9.64931 41.7062 9.26798 41.8102 8.95598C41.9489 8.64398 42.1395 8.38398 42.3822 8.17598L49.0902 2.50798C49.2635 2.36931 49.4889 2.26531 49.7662 2.19598C50.0782 2.09198 50.4075 2.03998 50.7542 2.03998H58.9182C59.7502 2.03998 60.3569 2.23064 60.7382 2.61198C61.1195 2.99331 61.3102 3.59998 61.3102 4.43198V28.144C61.3102 28.456 61.3622 28.7506 61.4662 29.028C61.5702 29.2706 61.7955 29.4613 62.1422 29.6V10.1C62.1422 9.64931 62.1942 9.26798 62.2982 8.95598C62.4022 8.64398 62.5582 8.40131 62.7662 8.22798L62.8182 8.17598L69.5782 2.50798C69.7515 2.36931 69.9769 2.26531 70.2542 2.19598C70.5315 2.09198 70.8609 2.03998 71.2422 2.03998H79.1462C79.9782 2.03998 80.5849 2.23064 80.9662 2.61198C81.3475 2.99331 81.5382 3.59998 81.5382 4.43198V30.172C81.5382 31.7666 81.3129 33.24 80.8622 34.592C80.4115 35.944 79.5969 37.1053 78.4182 38.076L71.6582 43.692C70.4449 44.732 68.7635 45.5293 66.6142 46.084C64.4649 46.6733 61.6742 46.968 58.2422 46.968ZM81.0182 30.172V4.43198C81.0182 3.77331 80.8622 3.30531 80.5502 3.02798C80.2729 2.71598 79.8049 2.55998 79.1462 2.55998H71.2422C70.5835 2.55998 70.0982 2.71598 69.7862 3.02798C69.5089 3.30531 69.3702 3.77331 69.3702 4.43198V28.144C69.3702 28.8373 69.1102 29.4266 68.5902 29.912C68.0702 30.3626 66.8915 30.588 65.0542 30.588C63.2515 30.588 62.0902 30.3626 61.5702 29.912C61.0502 29.4266 60.7902 28.8373 60.7902 28.144V4.43198C60.7902 3.77331 60.6342 3.30531 60.3222 3.02798C60.0449 2.71598 59.5769 2.55998 58.9182 2.55998H50.7542C50.0955 2.55998 49.6102 2.71598 49.2982 3.02798C49.0209 3.30531 48.8822 3.77331 48.8822 4.43198V30.172C48.8822 31.7666 49.1075 33.2226 49.5582 34.54C50.0435 35.8226 50.8755 36.932 52.0542 37.868C53.2675 38.7693 54.9142 39.48 56.9942 40C59.0742 40.52 61.7262 40.78 64.9502 40.78C68.1742 40.78 70.8262 40.52 72.9062 40C74.9862 39.48 76.6155 38.7693 77.7942 37.868C79.0075 36.932 79.8395 35.8226 80.2902 34.54C80.7755 33.2226 81.0182 31.7666 81.0182 30.172ZM54.6022 7.23998H55.1222V28.924C55.1222 30.8653 55.7982 32.4426 57.1502 33.656C58.5369 34.8346 61.1542 35.424 65.0022 35.424C68.8502 35.424 71.4675 34.8346 72.8542 33.656C74.2409 32.4426 74.9342 30.8653 74.9342 28.924V7.23998H75.4542V28.924C75.4542 31.004 74.7262 32.7026 73.2702 34.02C71.8142 35.3026 69.0582 35.944 65.0022 35.944C60.9462 35.944 58.1902 35.3026 56.7342 34.02C55.3129 32.7026 54.6022 31.004 54.6022 28.924V7.23998ZM87.3468 46.188C86.5148 46.188 85.9081 45.9973 85.5268 45.616C85.1454 45.2346 84.9548 44.628 84.9548 43.796V37.712C84.9548 37.2613 85.0068 36.88 85.1108 36.568C85.2494 36.256 85.4401 35.996 85.6828 35.788L90.8828 31.42C89.0454 30.8653 87.5894 29.9293 86.5148 28.612C85.4748 27.26 84.9548 25.336 84.9548 22.84V17.38C84.9548 15.82 85.2148 14.4333 85.7348 13.22C86.2548 12.0066 87.0001 10.984 87.9708 10.152L94.7308 4.48398C95.6668 3.72131 96.8281 3.13198 98.2148 2.71598C99.6014 2.26531 101.179 2.03998 102.947 2.03998H117.507C118.339 2.03998 118.945 2.23064 119.327 2.61198C119.708 2.99331 119.899 3.59998 119.899 4.43198V10.62C119.899 11.0706 119.829 11.452 119.691 11.764C119.587 12.076 119.413 12.336 119.171 12.544L114.491 16.444C116.675 16.9293 118.425 17.848 119.743 19.2C121.095 20.5173 121.771 22.58 121.771 25.388V30.848C121.771 32.408 121.511 33.7946 120.991 35.008C120.471 36.2213 119.708 37.244 118.703 38.076L111.995 43.692C111.024 44.4893 109.845 45.096 108.459 45.512C107.072 45.9626 105.512 46.188 103.779 46.188H87.3468ZM110.487 40C113.815 40 116.432 39.22 118.339 37.66C120.28 36.0653 121.251 33.7946 121.251 30.848V25.388C121.251 22.476 120.505 20.396 119.015 19.148C117.524 17.9 115.565 17.1026 113.139 16.756L105.391 15.716C104.94 15.6813 104.593 15.508 104.351 15.196C104.108 14.884 103.987 14.5026 103.987 14.052C103.987 13.6013 104.108 13.2373 104.351 12.96C104.593 12.648 104.94 12.492 105.391 12.492H117.507C118.165 12.492 118.633 12.3533 118.911 12.076C119.223 11.764 119.379 11.2786 119.379 10.62V4.43198C119.379 3.77331 119.223 3.30531 118.911 3.02798C118.633 2.71598 118.165 2.55998 117.507 2.55998H102.947C99.5841 2.55998 96.9494 3.35731 95.0428 4.95198C93.1361 6.51198 92.1828 8.76531 92.1828 11.712V17.172C92.1828 20.084 92.9108 22.164 94.3668 23.412C95.8574 24.66 97.8161 25.4573 100.243 25.804L108.043 26.896C108.493 26.9306 108.823 27.0866 109.031 27.364C109.273 27.6413 109.395 28.0746 109.395 28.664C109.395 29.08 109.273 29.444 109.031 29.756C108.823 30.0333 108.493 30.172 108.043 30.172H94.0548C93.3961 30.172 92.9108 30.328 92.5988 30.64C92.3214 30.9173 92.1828 31.3853 92.1828 32.044V38.128C92.1828 38.7866 92.3214 39.272 92.5988 39.584C92.9108 39.8613 93.3961 40 94.0548 40H110.487ZM114.699 7.23998V7.75998H103.155C101.699 7.75998 100.537 8.15865 99.6708 8.95598C98.8041 9.75331 98.3708 10.7586 98.3708 11.972V16.236C98.3708 17.4493 98.6134 18.2986 99.0988 18.784C99.5841 19.2693 100.225 19.5813 101.023 19.72L111.995 21.956C113.035 22.164 113.884 22.6146 114.543 23.308C115.236 24.0013 115.583 25.2493 115.583 27.052V30.068C115.583 31.5933 115.063 32.8586 114.023 33.864C112.983 34.8346 111.579 35.32 109.811 35.32H96.8628V34.8H109.811C111.405 34.8 112.671 34.3666 113.607 33.5C114.577 32.5986 115.063 31.4546 115.063 30.068V27.052C115.063 25.4226 114.768 24.3133 114.179 23.724C113.624 23.1 112.861 22.684 111.891 22.476L100.919 20.24C100.017 20.0666 99.2721 19.72 98.6828 19.2C98.1281 18.6453 97.8508 17.6573 97.8508 16.236V11.972C97.8508 10.5853 98.3361 9.45864 99.3068 8.59198C100.277 7.69064 101.56 7.23998 103.155 7.23998H114.699ZM142.583 46.188H134.159C133.327 46.188 132.72 45.9973 132.339 45.616C131.958 45.2346 131.767 44.628 131.767 43.796V18.784H124.643C123.811 18.784 123.204 18.5933 122.823 18.212C122.442 17.8306 122.251 17.224 122.251 16.392V10.1C122.251 9.64931 122.303 9.26798 122.407 8.95598C122.546 8.64398 122.736 8.38398 122.979 8.17598L129.687 2.50798C129.86 2.36931 130.086 2.26531 130.363 2.19598C130.675 2.09198 131.004 2.03998 131.351 2.03998H158.807C159.639 2.03998 160.246 2.23064 160.627 2.61198C161.008 2.99331 161.199 3.59998 161.199 4.43198V10.724C161.199 11.1746 161.13 11.556 160.991 11.868C160.887 12.18 160.714 12.44 160.471 12.648L153.711 18.264C153.572 18.4026 153.347 18.524 153.035 18.628C152.758 18.732 152.446 18.784 152.099 18.784H151.683V38.128C151.683 38.5786 151.614 38.96 151.475 39.272C151.371 39.584 151.198 39.844 150.955 40.052L144.195 45.668C144.056 45.8066 143.831 45.928 143.519 46.032C143.242 46.136 142.93 46.188 142.583 46.188ZM149.291 40C149.95 40 150.418 39.8613 150.695 39.584C151.007 39.272 151.163 38.7866 151.163 38.128V12.596H158.807C159.466 12.596 159.934 12.4573 160.211 12.18C160.523 11.868 160.679 11.3826 160.679 10.724V4.43198C160.679 3.77331 160.523 3.30531 160.211 3.02798C159.934 2.71598 159.466 2.55998 158.807 2.55998H131.351C130.692 2.55998 130.207 2.71598 129.895 3.02798C129.618 3.30531 129.479 3.77331 129.479 4.43198V10.724C129.479 11.3826 129.618 11.868 129.895 12.18C130.207 12.4573 130.692 12.596 131.351 12.596H138.995V38.128C138.995 38.7866 139.134 39.272 139.411 39.584C139.723 39.8613 140.208 40 140.867 40H149.291ZM144.819 35.32V7.75998H134.159V7.23998H155.999V7.75998H145.339V35.32H144.819ZM174.086 24.244V25.856H194.366V24.244C194.366 23.308 194.279 22.4413 194.106 21.644C193.967 20.8466 193.776 20.1013 193.534 19.408L189.946 10.932C189.564 10.0306 189.166 9.28531 188.75 8.69598C188.334 8.07198 187.64 7.75998 186.67 7.75998H181.574C180.534 7.75998 179.806 8.07198 179.39 8.69598C178.974 9.28531 178.592 10.0133 178.246 10.88L174.918 19.408C174.675 20.1013 174.467 20.8466 174.294 21.644C174.155 22.4413 174.086 23.308 174.086 24.244ZM182.406 13.48C182.544 13.168 182.683 12.9426 182.822 12.804C182.995 12.6653 183.186 12.596 183.394 12.596H184.694C184.902 12.596 185.075 12.6653 185.214 12.804C185.387 12.9426 185.543 13.168 185.682 13.48L188.126 21.384H179.962L182.406 13.48ZM194.366 35.32V26.376H174.086V35.32H173.566V24.244C173.566 23.2733 173.635 22.3893 173.774 21.592C173.947 20.76 174.172 19.9626 174.45 19.2L177.778 10.672C178.159 9.70131 178.592 8.88665 179.078 8.22798C179.563 7.56931 180.395 7.23998 181.574 7.23998H186.67C187.814 7.23998 188.611 7.56931 189.062 8.22798C189.547 8.88665 189.998 9.71865 190.414 10.724L194.002 19.2C194.279 19.9626 194.487 20.76 194.626 21.592C194.799 22.3893 194.886 23.2733 194.886 24.244V35.32H194.366ZM179.442 38.128V30.848H188.646V38.128C188.646 38.7866 188.802 39.272 189.114 39.584C189.46 39.8613 189.98 40 190.674 40H198.526C199.184 40 199.652 39.8613 199.93 39.584C200.242 39.272 200.398 38.7866 200.398 38.128V24.4C200.398 23.36 200.224 22.164 199.878 20.812C199.566 19.46 199.063 17.8826 198.37 16.08L193.846 4.27598C193.638 3.68664 193.308 3.25331 192.858 2.97598C192.442 2.69864 191.904 2.55998 191.246 2.55998H177.258C176.564 2.55998 175.992 2.69864 175.542 2.97598C175.126 3.25331 174.814 3.68664 174.606 4.27598L170.082 16.08C169.388 17.8826 168.868 19.46 168.522 20.812C168.21 22.164 168.054 23.36 168.054 24.4V38.128C168.054 38.7866 168.192 39.272 168.47 39.584C168.782 39.8613 169.267 40 169.926 40H177.57C178.228 40 178.696 39.8613 178.974 39.584C179.286 39.272 179.442 38.7866 179.442 38.128ZM172.474 45.668C172.335 45.8066 172.11 45.928 171.798 46.032C171.52 46.136 171.208 46.188 170.862 46.188H163.218C162.386 46.188 161.779 45.9973 161.398 45.616C161.016 45.2346 160.826 44.628 160.826 43.796V30.068C160.826 28.9933 160.982 27.78 161.294 26.428C161.64 25.0413 162.178 23.412 162.906 21.54L167.378 9.78798C167.482 9.47598 167.603 9.21598 167.742 9.00798C167.915 8.76531 168.088 8.55731 168.262 8.38398L168.314 8.33198L174.97 2.76798C175.247 2.52531 175.576 2.35198 175.958 2.24798C176.339 2.10931 176.772 2.03998 177.258 2.03998H191.246C192.043 2.03998 192.684 2.21331 193.17 2.55998C193.69 2.87198 194.071 3.37464 194.314 4.06798L198.838 15.872C199.566 17.744 200.086 19.3733 200.398 20.76C200.744 22.112 200.918 23.3253 200.918 24.4V38.128C200.918 38.5786 200.848 38.96 200.71 39.272C200.606 39.584 200.432 39.844 200.19 40.052L193.43 45.668C193.291 45.8066 193.066 45.928 192.754 46.032C192.476 46.136 192.164 46.188 191.818 46.188H183.966C183.099 46.188 182.458 45.98 182.042 45.564C181.626 45.1826 181.418 44.5933 181.418 43.796V37.036H179.962V38.128C179.962 38.5786 179.892 38.96 179.754 39.272C179.65 39.584 179.476 39.844 179.234 40.052L172.474 45.668ZM228.482 46.188H206.33C205.498 46.188 204.891 45.9973 204.51 45.616C204.128 45.2346 203.938 44.628 203.938 43.796V37.608C203.938 37.1573 203.99 36.776 204.094 36.464C204.232 36.152 204.423 35.892 204.666 35.684L210.958 30.38V18.784H206.33C205.498 18.784 204.891 18.5933 204.51 18.212C204.128 17.8306 203.938 17.224 203.938 16.392V10.1C203.938 9.64931 203.99 9.26798 204.094 8.95598C204.232 8.64398 204.423 8.38398 204.666 8.17598L211.374 2.50798C211.547 2.36931 211.772 2.26531 212.05 2.19598C212.362 2.09198 212.691 2.03998 213.038 2.03998H235.19C236.022 2.03998 236.628 2.23064 237.01 2.61198C237.391 2.99331 237.582 3.59998 237.582 4.43198V10.724C237.582 11.1746 237.512 11.556 237.374 11.868C237.27 12.18 237.096 12.44 236.854 12.648L230.666 17.848V29.548H235.19C236.022 29.548 236.628 29.7386 237.01 30.12C237.391 30.5013 237.582 31.108 237.582 31.94V38.128C237.582 38.5786 237.512 38.96 237.374 39.272C237.27 39.584 237.096 39.844 236.854 40.052L230.094 45.668C229.955 45.8066 229.73 45.928 229.418 46.032C229.14 46.136 228.828 46.188 228.482 46.188ZM213.038 40H235.19C235.848 40 236.316 39.8613 236.594 39.584C236.906 39.272 237.062 38.7866 237.062 38.128V31.94C237.062 31.2813 236.906 30.8133 236.594 30.536C236.316 30.224 235.848 30.068 235.19 30.068H230.146V12.596H235.19C235.848 12.596 236.316 12.4573 236.594 12.18C236.906 11.868 237.062 11.3826 237.062 10.724V4.43198C237.062 3.77331 236.906 3.30531 236.594 3.02798C236.316 2.71598 235.848 2.55998 235.19 2.55998H213.038C212.379 2.55998 211.894 2.71598 211.582 3.02798C211.304 3.30531 211.166 3.77331 211.166 4.43198V10.724C211.166 11.3826 211.304 11.868 211.582 12.18C211.894 12.4573 212.379 12.596 213.038 12.596H218.186V30.068H213.038C212.379 30.068 211.894 30.224 211.582 30.536C211.304 30.8133 211.166 31.2813 211.166 31.94V38.128C211.166 38.7866 211.304 39.272 211.582 39.584C211.894 39.8613 212.379 40 213.038 40ZM232.382 35.32H215.846V34.8H223.906V7.75998H215.846V7.23998H232.382V7.75998H224.426V34.8H232.382V35.32ZM255.526 7.65598L274.662 29.184V7.23998H275.182V35.32H274.662V29.964L255.006 7.91598C254.971 7.88131 254.919 7.84664 254.85 7.81198C254.815 7.77731 254.78 7.75998 254.746 7.75998C254.711 7.75998 254.676 7.77731 254.642 7.81198C254.642 7.84664 254.642 7.88131 254.642 7.91598V35.32H254.122V7.81198C254.122 7.60398 254.191 7.44798 254.33 7.34398C254.468 7.23998 254.607 7.18798 254.746 7.18798C254.884 7.18798 255.006 7.22264 255.11 7.29198C255.214 7.36131 255.352 7.48264 255.526 7.65598ZM258.334 40C258.992 40 259.46 39.8613 259.738 39.584C260.05 39.272 260.206 38.7866 260.206 38.128V20.968L269.098 31.732V38.128C269.098 38.7866 269.236 39.272 269.514 39.584C269.826 39.8613 270.311 40 270.97 40H278.77C279.428 40 279.896 39.8613 280.174 39.584C280.486 39.272 280.642 38.7866 280.642 38.128V4.43198C280.642 3.77331 280.486 3.30531 280.174 3.02798C279.896 2.71598 279.428 2.55998 278.77 2.55998H270.97C270.311 2.55998 269.826 2.71598 269.514 3.02798C269.236 3.30531 269.098 3.77331 269.098 4.43198V15.508L259.01 3.96398C258.559 3.44398 258.091 3.07998 257.606 2.87198C257.155 2.66398 256.6 2.55998 255.942 2.55998H250.534C249.875 2.55998 249.39 2.71598 249.078 3.02798C248.8 3.30531 248.662 3.77331 248.662 4.43198V38.128C248.662 38.7866 248.8 39.272 249.078 39.584C249.39 39.8613 249.875 40 250.534 40H258.334ZM259.998 40.052L253.238 45.668C253.099 45.8066 252.874 45.928 252.562 46.032C252.284 46.136 251.972 46.188 251.626 46.188H243.826C242.994 46.188 242.387 45.9973 242.006 45.616C241.624 45.2346 241.434 44.628 241.434 43.796V10.1C241.434 9.64931 241.486 9.26798 241.59 8.95598C241.728 8.64398 241.919 8.38398 242.162 8.17598L248.87 2.50798C249.043 2.36931 249.268 2.26531 249.546 2.19598C249.858 2.09198 250.187 2.03998 250.534 2.03998H255.942C256.704 2.03998 257.346 2.16131 257.866 2.40398C258.386 2.64664 258.906 3.04531 259.426 3.59998L263.014 7.75998L269.306 2.50798C269.479 2.36931 269.704 2.26531 269.982 2.19598C270.294 2.09198 270.623 2.03998 270.97 2.03998H278.77C279.602 2.03998 280.208 2.23064 280.59 2.61198C280.971 2.99331 281.162 3.59998 281.162 4.43198V38.128C281.162 38.5786 281.092 38.96 280.954 39.272C280.85 39.584 280.676 39.844 280.434 40.052L273.674 45.668C273.535 45.8066 273.31 45.928 272.998 46.032C272.72 46.136 272.408 46.188 272.062 46.188H264.262C263.43 46.188 262.823 45.9973 262.442 45.616C262.06 45.2346 261.87 44.628 261.87 43.796V37.608L260.726 36.204V38.128C260.726 38.5786 260.656 38.96 260.518 39.272C260.414 39.584 260.24 39.844 259.998 40.052Z" stroke="#6132CD" stroke-width="3"/>
</svg>
